<svg xmlns="http://www.w3.org/2000/svg" xmlns:xlink="http://www.w3.org/1999/xlink" width="500" height="396" viewBox="0 0 500 396"><defs><clipPath id="a"><rect width="500" height="396" transform="translate(1 4996)" fill="none" stroke="#fff" stroke-width="0.5"/></clipPath><clipPath id="b"><rect width="501.065" height="659.068" fill="none" stroke="#fff" stroke-width="0.5"/></clipPath></defs><g transform="translate(-1 -5310)"><g transform="translate(0 314)" opacity="0.296" clip-path="url(#a)"><g transform="translate(-0.279 4846.317)"><g clip-path="url(#b)"><path d="M0,658.435a.25.25,0,0,1-.25-.25V0A.25.25,0,0,1,0-.25.25.25,0,0,1,.25,0V658.185A.25.25,0,0,1,0,658.435Z" transform="translate(418.105 0.442)" fill="#fff"/><path d="M0,658.435a.25.25,0,0,1-.25-.25V0A.25.25,0,0,1,0-.25.25.25,0,0,1,.25,0V658.185A.25.25,0,0,1,0,658.435Z" transform="translate(0.443 0.442)" fill="#fff"/><path d="M0,658.435a.25.25,0,0,1-.25-.25V0A.25.25,0,0,1,0-.25.25.25,0,0,1,.25,0V658.185A.25.25,0,0,1,0,658.435Z" transform="translate(61.3 0.442)" fill="#fff"/><path d="M0,658.435a.25.25,0,0,1-.25-.25V0A.25.25,0,0,1,0-.25.25.25,0,0,1,.25,0V658.185A.25.25,0,0,1,0,658.435Z" transform="translate(82.961 0.442)" fill="#fff"/><path d="M0,658.435a.25.25,0,0,1-.25-.25V0A.25.25,0,0,1,0-.25.25.25,0,0,1,.25,0V658.185A.25.25,0,0,1,0,658.435Z" transform="translate(101.342 0.442)" fill="#fff"/><path d="M0,658.435a.25.25,0,0,1-.25-.25V0A.25.25,0,0,1,0-.25.25.25,0,0,1,.25,0V658.185A.25.25,0,0,1,0,658.435Z" transform="translate(117.284 0.442)" fill="#fff"/><path d="M0,658.435a.25.25,0,0,1-.25-.25V0A.25.25,0,0,1,0-.25.25.25,0,0,1,.25,0V658.185A.25.25,0,0,1,0,658.435Z" transform="translate(131.254 0.442)" fill="#fff"/><path d="M0,658.435a.25.25,0,0,1-.25-.25V0A.25.25,0,0,1,0-.25.25.25,0,0,1,.25,0V658.185A.25.25,0,0,1,0,658.435Z" transform="translate(143.913 0.442)" fill="#fff"/><path d="M0,658.435a.25.25,0,0,1-.25-.25V0A.25.25,0,0,1,0-.25.25.25,0,0,1,.25,0V658.185A.25.25,0,0,1,0,658.435Z" transform="translate(226.433 0.442)" fill="#fff"/><path d="M0,658.435a.25.25,0,0,1-.25-.25V0A.25.25,0,0,1,0-.25.25.25,0,0,1,.25,0V658.185A.25.25,0,0,1,0,658.435Z" transform="translate(274.722 0.442)" fill="#fff"/><path d="M0,658.435a.25.25,0,0,1-.25-.25V0A.25.25,0,0,1,0-.25.25.25,0,0,1,.25,0V658.185A.25.25,0,0,1,0,658.435Z" transform="translate(308.955 0.442)" fill="#fff"/><path d="M0,658.435a.25.25,0,0,1-.25-.25V0A.25.25,0,0,1,0-.25.25.25,0,0,1,.25,0V658.185A.25.25,0,0,1,0,658.435Z" transform="translate(335.492 0.442)" fill="#fff"/><path d="M0,658.435a.25.25,0,0,1-.25-.25V0A.25.25,0,0,1,0-.25.25.25,0,0,1,.25,0V658.185A.25.25,0,0,1,0,658.435Z" transform="translate(357.152 0.442)" fill="#fff"/><path d="M0,658.435a.25.25,0,0,1-.25-.25V0A.25.25,0,0,1,0-.25.25.25,0,0,1,.25,0V658.185A.25.25,0,0,1,0,658.435Z" transform="translate(375.531 0.442)" fill="#fff"/><path d="M0,658.435a.25.25,0,0,1-.25-.25V0A.25.25,0,0,1,0-.25.25.25,0,0,1,.25,0V658.185A.25.25,0,0,1,0,658.435Z" transform="translate(391.479 0.442)" fill="#fff"/><path d="M0,658.435a.25.25,0,0,1-.25-.25V0A.25.25,0,0,1,0-.25.25.25,0,0,1,.25,0V658.185A.25.25,0,0,1,0,658.435Z" transform="translate(405.447 0.442)" fill="#fff"/><path d="M0,658.435a.25.25,0,0,1-.25-.25V0A.25.25,0,0,1,0-.25.25.25,0,0,1,.25,0V658.185A.25.25,0,0,1,0,658.435Z" transform="translate(466.4 0.442)" fill="#fff"/><path d="M0,658.435a.25.25,0,0,1-.25-.25V0A.25.25,0,0,1,0-.25.25.25,0,0,1,.25,0V658.185A.25.25,0,0,1,0,658.435Z" transform="translate(500.623 0.442)" fill="#fff"/><path d="M0,658.435a.25.25,0,0,1-.25-.25V0A.25.25,0,0,1,0-.25.25.25,0,0,1,.25,0V658.185A.25.25,0,0,1,0,658.435Z" transform="translate(34.764 0.442)" fill="#fff"/><path d="M500.181.25H0A.25.25,0,0,1-.25,0,.25.25,0,0,1,0-.25H500.181a.25.25,0,0,1,.25.25A.25.25,0,0,1,500.181.25Z" transform="translate(0.442 0.442)" fill="#fff"/><path d="M500.181.25H0A.25.25,0,0,1-.25,0,.25.25,0,0,1,0-.25H500.181a.25.25,0,0,1,.25.25A.25.25,0,0,1,500.181.25Z" transform="translate(0.443 548.914)" fill="#fff"/><path d="M500.181.25H0A.25.25,0,0,1-.25,0,.25.25,0,0,1,0-.25H500.181a.25.25,0,0,1,.25.25A.25.25,0,0,1,500.181.25Z" transform="translate(0.443 274.724)" fill="#fff"/><path d="M500.181.25H0A.25.25,0,0,1-.25,0,.25.25,0,0,1,0-.25H500.181a.25.25,0,0,1,.25.25A.25.25,0,0,1,500.181.25Z" transform="translate(0.443 192.486)" fill="#fff"/><path d="M500.181.25H0A.25.25,0,0,1-.25,0,.25.25,0,0,1,0-.25H500.181a.25.25,0,0,1,.25.25A.25.25,0,0,1,500.181.25Z" transform="translate(0.443 143.068)" fill="#fff"/><path d="M500.181.25H0A.25.25,0,0,1-.25,0,.25.25,0,0,1,0-.25H500.181a.25.25,0,0,1,.25.25A.25.25,0,0,1,500.181.25Z" transform="translate(0.443 110.156)" fill="#fff"/><path d="M500.181.25H0A.25.25,0,0,1-.25,0,.25.25,0,0,1,0-.25H500.181a.25.25,0,0,1,.25.25A.25.25,0,0,1,500.181.25Z" transform="translate(0.443 60.832)" fill="#fff"/><path d="M500.181.25H0A.25.25,0,0,1-.25,0,.25.25,0,0,1,0-.25H500.181a.25.25,0,0,1,.25.25A.25.25,0,0,1,500.181.25Z" transform="translate(0.443 41.608)" fill="#fff"/><path d="M500.181.25H0A.25.25,0,0,1-.25,0,.25.25,0,0,1,0-.25H500.181a.25.25,0,0,1,.25.25A.25.25,0,0,1,500.181.25Z" transform="translate(0.443 27.92)" fill="#fff"/><path d="M500.181.25H0A.25.25,0,0,1-.25,0,.25.25,0,0,1,0-.25H500.181a.25.25,0,0,1,.25.25A.25.25,0,0,1,500.181.25Z" transform="translate(0.443 14.134)" fill="#fff"/><path d="M500.181.25H0A.25.25,0,0,1-.25,0,.25.25,0,0,1,0-.25H500.181a.25.25,0,0,1,.25.25A.25.25,0,0,1,500.181.25Z" transform="translate(0.443 82.775)" fill="#fff"/><path d="M500.181.25H0A.25.25,0,0,1-.25,0,.25.25,0,0,1,0-.25H500.181a.25.25,0,0,1,.25.25A.25.25,0,0,1,500.181.25Z" transform="translate(0.443 357.055)" fill="#fff"/><path d="M500.181.25H0A.25.25,0,0,1-.25,0,.25.25,0,0,1,0-.25H500.181a.25.25,0,0,1,.25.25A.25.25,0,0,1,500.181.25Z" transform="translate(0.443 335.115)" fill="#fff"/><path d="M500.181.25H0A.25.25,0,0,1-.25,0,.25.25,0,0,1,0-.25H500.181a.25.25,0,0,1,.25.25A.25.25,0,0,1,500.181.25Z" transform="translate(0.443 315.891)" fill="#fff"/><path d="M500.181.25H0A.25.25,0,0,1-.25,0,.25.25,0,0,1,0-.25H500.181a.25.25,0,0,1,.25.25A.25.25,0,0,1,500.181.25Z" transform="translate(0.443 302.2)" fill="#fff"/><path d="M500.181.25H0A.25.25,0,0,1-.25,0,.25.25,0,0,1,0-.25H500.181a.25.25,0,0,1,.25.25A.25.25,0,0,1,500.181.25Z" transform="translate(0.443 288.417)" fill="#fff"/><path d="M500.181.25H0A.25.25,0,0,1-.25,0,.25.25,0,0,1,0-.25H500.181a.25.25,0,0,1,.25.25A.25.25,0,0,1,500.181.25Z" transform="translate(0.443 384.436)" fill="#fff"/><path d="M500.181.25H0A.25.25,0,0,1-.25,0,.25.25,0,0,1,0-.25H500.181a.25.25,0,0,1,.25.25A.25.25,0,0,1,500.181.25Z" transform="translate(0.443 466.681)" fill="#fff"/><path d="M500.181.25H0A.25.25,0,0,1-.25,0,.25.25,0,0,1,0-.25H500.181a.25.25,0,0,1,.25.25A.25.25,0,0,1,500.181.25Z" transform="translate(0.443 417.351)" fill="#fff"/><path d="M0,7.1a.25.25,0,0,1-.25-.25V0A.25.25,0,0,1,0-.25.25.25,0,0,1,.25,0V6.845A.25.25,0,0,1,0,7.1Z" transform="translate(143.913 651.78)" fill="#fff"/><path d="M0,7.1a.25.25,0,0,1-.25-.25V0A.25.25,0,0,1,0-.25.25.25,0,0,1,.25,0V6.845A.25.25,0,0,1,0,7.1Z" transform="translate(61.3 651.78)" fill="#fff"/><path d="M0,7.1a.25.25,0,0,1-.25-.25V0A.25.25,0,0,1,0-.25.25.25,0,0,1,.25,0V6.845A.25.25,0,0,1,0,7.1Z" transform="translate(335.492 651.78)" fill="#fff"/><path d="M500.181.25H0A.25.25,0,0,1-.25,0,.25.25,0,0,1,0-.25H500.181a.25.25,0,0,1,.25.25A.25.25,0,0,1,500.181.25Z" transform="translate(0.443 225.4)" fill="#fff"/></g><path d="M0,192.2a.25.25,0,0,1-.224-.138.25.25,0,0,1,.112-.335L383.234-.224a.25.25,0,0,1,.335.112.25.25,0,0,1-.112.335L.112,192.172A.249.249,0,0,1,0,192.2Z" transform="translate(104.716 82.775)" fill="#fff"/><path d="M0,192.293a.25.25,0,0,1-.224-.138.25.25,0,0,1,.112-.335L383.234-.224a.25.25,0,0,1,.335.112.25.25,0,0,1-.112.335L.112,192.266A.249.249,0,0,1,0,192.293Z" transform="translate(104.717 110.158)" fill="#fff"/><path d="M0,193.61a.25.25,0,0,1-.224-.138.25.25,0,0,1,.112-.336L385.954-.224a.25.25,0,0,1,.336.112.25.25,0,0,1-.112.336L.112,193.584A.249.249,0,0,1,0,193.61Z" transform="translate(101.996 143.067)" fill="#fff"/><path d="M0,192.2a.25.25,0,0,1-.224-.138.25.25,0,0,1,.112-.335L383.234-.224a.25.25,0,0,1,.335.112.25.25,0,0,1-.112.335L.112,192.175A.249.249,0,0,1,0,192.2Z" transform="translate(104.717 192.485)" fill="#fff"/><path d="M0,192.2a.25.25,0,0,1-.224-.138.25.25,0,0,1,.112-.335L383.234-.224a.25.25,0,0,1,.335.112.25.25,0,0,1-.112.335L.112,192.175A.249.249,0,0,1,0,192.2Z" transform="translate(104.717 225.399)" fill="#fff"/><path d="M0,192.208a.25.25,0,0,1-.224-.138.25.25,0,0,1,.112-.335L383.234-.224a.25.25,0,0,1,.335.112.25.25,0,0,1-.112.335L.112,192.181A.249.249,0,0,1,0,192.208Z" transform="translate(104.717 274.724)" fill="#fff"/><path d="M0,192.11a.25.25,0,0,1-.224-.138.25.25,0,0,1,.112-.335L383.234-.224a.25.25,0,0,1,.335.112.25.25,0,0,1-.112.335L.112,192.084A.249.249,0,0,1,0,192.11Z" transform="translate(104.717 357.054)" fill="#fff"/><g clip-path="url(#b)"><path d="M0,7.1a.25.25,0,0,1-.25-.25V0A.25.25,0,0,1,0-.25.25.25,0,0,1,.25,0V6.845A.25.25,0,0,1,0,7.1Z" transform="translate(418.105 651.78)" fill="#fff"/><path d="M500.181.25H0A.25.25,0,0,1-.25,0,.25.25,0,0,1,0-.25H500.181a.25.25,0,0,1,.25.25A.25.25,0,0,1,500.181.25Z" transform="translate(0.443 658.626)" fill="#fff"/></g></g></g><g transform="translate(-15 -42.275)"><rect width="100" height="100" transform="translate(212 5509.275)" fill="none"/><path d="M225.051,5521.588h76.355v74.118H225.051Z" fill="#201952"/><path d="M83.024,83.613H3.7A3.687,3.687,0,0,1,0,79.946V3.661A3.684,3.684,0,0,1,3.7,0H83.024a3.683,3.683,0,0,1,3.7,3.661V79.946A3.686,3.686,0,0,1,83.024,83.613ZM42.6,55.256c-3.314,0-5.688,3.025-5.711,3.055L26.677,75.526c.053,0,5.548.041,10.009.041,1.782,0,4.133-.007,5.214-.041a6.228,6.228,0,0,0,5.214-2.774c2.1-3.675,7.92-14.284,8.166-14.734,2.033-2.686,5.748-2.763,6.165-2.763h7.07l.2,0c.083,0,.173,0,.269,0,1.22,0,2.856-.319,4.687-2.807C77.44,47.316,80.707,39.378,80.74,39.3c1.437-3.795,1.44-6.757.008-8.8a6.306,6.306,0,0,0-4.567-2.509H58.94a7.43,7.43,0,0,0-5.511,2.627L46.713,41.828h18.2c-.051.091-5.908,10.464-5.97,10.626-1.086,2.77-4.626,2.8-4.662,2.8ZM5.927,8.081l14.723,23.7L5.872,55.256c.056,0,5.561.011,10.033.011,2.089,0,4.394,0,5.648-.011A7.1,7.1,0,0,0,27.021,52.4L39.142,31.779c-.1-.183-10.918-19.308-12.02-20.873a6.235,6.235,0,0,0-4.94-2.827H5.927Zm45.527,0a5.5,5.5,0,0,0-4.6,2.509c-.091.158-9.138,15.864-9.531,16.652a.693.693,0,0,0-.072.636.558.558,0,0,0,.383.249H51.5a6.631,6.631,0,0,0,4.971-2.576L66.919,8.081Z" transform="translate(219 5516.275)" fill="#fff"/><path d="M83.024,84.113H3.7A4.188,4.188,0,0,1-.5,79.946V3.661A4.185,4.185,0,0,1,3.7-.5H83.024a4.184,4.184,0,0,1,4.2,4.161V79.946A4.187,4.187,0,0,1,83.024,84.113ZM3.7.5A3.184,3.184,0,0,0,.5,3.661V79.946a3.186,3.186,0,0,0,3.2,3.167H83.024a3.185,3.185,0,0,0,3.2-3.167V3.661A3.183,3.183,0,0,0,83.024.5ZM36.685,76.067c-4.042,0-9.012-.034-9.967-.04l-.916-.005L36.477,58.03l.019-.024c.025-.033,2.553-3.25,6.107-3.25H54.278c.03,0,3.243-.054,4.2-2.483.027-.07.17-.358,5.579-9.945H45.83l7.184-11.995.017-.022a7.973,7.973,0,0,1,5.909-2.824H76.181A6.288,6.288,0,0,1,78.332,28a6.406,6.406,0,0,1,2.826,2.211c1.532,2.19,1.549,5.308.05,9.267l0,.012c-.033.08-3.318,8.067-7.127,13.262a7.813,7.813,0,0,1-2.754,2.489,5.11,5.11,0,0,1-2.336.522c-.1,0-.192,0-.279,0l-.192,0h-7.07c-.39,0-3.853.072-5.745,2.536-.431.785-6.1,11.1-8.152,14.708a6.735,6.735,0,0,1-5.636,3.026C40.828,76.06,38.471,76.067,36.685,76.067Zm-9.134-1.035c1.813.012,5.791.035,9.134.035,1.779,0,4.124-.007,5.2-.041a5.724,5.724,0,0,0,4.795-2.522c2.088-3.661,7.916-14.277,8.163-14.727l.018-.032.022-.029c2.178-2.878,6.122-2.961,6.564-2.961h7.07l.211,0c.081,0,.167,0,.26,0,1.1,0,2.586-.3,4.284-2.6,3.694-5.037,6.9-12.787,7.005-13.043,1.373-3.628,1.394-6.431.064-8.333a5.848,5.848,0,0,0-4.157-2.3H58.94a6.976,6.976,0,0,0-5.1,2.414L47.595,41.328H65.762l-.416.744-.2.363c-4.749,8.415-5.646,10.032-5.743,10.22-1.217,3.066-5.081,3.1-5.12,3.1H42.6c-2.9,0-5.084,2.577-5.3,2.841ZM15.905,55.767c-4.531,0-10.007-.011-10.035-.011l-.9,0L20.06,31.778,5.027,7.581H22.182a6.745,6.745,0,0,1,5.349,3.038c.772,1.1,6.075,10.392,9.413,16.27.927-1.706,9.388-16.394,9.476-16.547a6.033,6.033,0,0,1,5.033-2.759H67.8L56.874,25.841A7.171,7.171,0,0,1,51.5,28.627H37.931c.813,1.434,1.41,2.489,1.64,2.895l.148.262-12.283,20.9a7.641,7.641,0,0,1-5.879,3.074C20.3,55.765,18,55.767,15.905,55.767ZM6.777,54.757c1.751,0,5.735.009,9.128.009,2.088,0,4.392,0,5.644-.011A6.646,6.646,0,0,0,26.6,52.131L38.565,31.774C37.249,29.45,27.725,12.632,26.713,11.194a5.725,5.725,0,0,0-4.531-2.615H6.826l14.413,23.2Zm30.929-27.13H51.5a6.157,6.157,0,0,0,4.554-2.354L66.037,8.581H51.453a5,5,0,0,0-4.168,2.26c-2.537,4.4-9.193,15.975-9.517,16.625A.733.733,0,0,0,37.705,27.627Z" transform="translate(219 5516.275)" fill="rgba(0,0,0,0)"/><path d="M52.545,31.476H66.409A6.582,6.582,0,0,0,71.38,28.9L81.831,11.43H66.367a5.458,5.458,0,0,0-4.6,2.508s-9.133,15.855-9.531,16.653.31.884.31.884" transform="translate(204.087 5512.926)" fill="#cf1126"/><path d="M66.409,31.976h-13.9l-.033,0a1.034,1.034,0,0,1-.759-.512,1.148,1.148,0,0,1,.069-1.093c.4-.8,9.171-16.03,9.544-16.678a5.923,5.923,0,0,1,5.034-2.758H82.713L71.788,29.19A7.036,7.036,0,0,1,66.409,31.976Zm-13.789-1H66.409a6.114,6.114,0,0,0,4.554-2.352L80.95,11.93H66.367a4.832,4.832,0,0,0-3.14,1.114A4.775,4.775,0,0,0,62.2,14.187c-3.157,5.48-9.207,16.007-9.517,16.627A.737.737,0,0,0,52.62,30.976Z" transform="translate(204.087 5512.926)" fill="rgba(0,0,0,0)"/></g></g></svg>