<svg xmlns="http://www.w3.org/2000/svg" width="280" height="57" viewBox="0 0 280 57">
                            <g transform="translate(8.089 7.418)">
                                <rect width="280" height="57" transform="translate(-8.089 -7.418)" fill="none"></rect>
                                <path class="recruit-company-logo__symbol" d="M41.72,38.832a1.787,1.787,0,0,1-1.778,1.781H1.779A1.786,1.786,0,0,1,0,38.832V1.779A1.785,1.785,0,0,1,1.779,0H39.942A1.785,1.785,0,0,1,41.72,1.779Z" transform="translate(0.959 0.857)" fill="#726f71"></path>
                                <path class="recruit-company-logo__symbol" d="M61.186,39.584H52.891A3.539,3.539,0,0,0,50.24,40.86l-3.231,5.447h8.754s-2.84,5.078-2.872,5.161a2.5,2.5,0,0,1-2.243,1.361H45.032a3.929,3.929,0,0,0-2.748,1.485L37.37,62.675s5.953.044,7.324,0A2.966,2.966,0,0,0,47.2,61.328c1.037-1.836,3.93-7.158,3.93-7.158A3.864,3.864,0,0,1,54.1,52.829h3.4a2.6,2.6,0,0,0,2.481-1.361,36.28,36.28,0,0,0,3.4-6.39c1.809-4.823-1.665-5.494-2.193-5.494" transform="translate(-23.577 -25.133)" fill="#fff"></path>
                                <path class="recruit-company-logo__symbol" d="M24.232,22.939S18.986,13.57,18.449,12.8a2.966,2.966,0,0,0-2.412-1.373H8.252l7.083,11.511-7.109,11.4s5.832.013,7.544,0a3.385,3.385,0,0,0,2.63-1.386Z" transform="translate(-4.442 -6.645)" fill="#fff"></path>
                                <path class="recruit-company-logo__symbol" d="M52.321,21.167h6.67a3.161,3.161,0,0,0,2.392-1.251l5.028-8.486h-7.44a2.624,2.624,0,0,0-2.213,1.218s-4.394,7.7-4.585,8.089.149.43.149.43" transform="translate(-33.258 -6.647)" fill="#cf1126"></path>
                                <path d="M158.694,15.812l.286-2.243h-4.253l-.286,2.243H151.56l-.7,4.113h3.059l-1.434,11.264h4.254l1.433-11.264h6.439l-.056.047a5.419,5.419,0,0,1-4.767,4.346l-.888,4.393c7.524,0,10.656-8.6,10.656-12.9Z" transform="translate(-98.092 -8.052)" fill="#fff"></path>
                                <path d="M359.469,16.02l-3.213,16.563h11.252a4.954,4.954,0,0,0,4.958-3.9l2.461-12.667Zm1.694,12.666,1.706-8.786h7.1l-1.618,8.335a.614.614,0,0,1-.63.451Z" transform="translate(-232.952 -9.661)" fill="#fff"></path>
                                <path d="M431.072,16.095H416.263l-.737,3.841h14.81Z" transform="translate(-271.868 -9.71)" fill="#fff"></path>
                                <path d="M410.205,34.683h7.2c-1.28,4.475-5.457,3.829-7.2,3.829l-.7,3.8c5.775,0,9.168-.106,12.107-7.626H426.1l.69-3.84H410.9Z" transform="translate(-267.913 -19.394)" fill="#fff"></path>
                                <path d="M466.472,33.5l.589-6.729h-3.085l-.589,6.729Z" transform="translate(-303.293 -16.721)" fill="#fff"></path>
                                <path d="M478.211,33.5l.589-6.729h-3.085l-.588,6.729Z" transform="translate(-311 -16.721)" fill="#fff"></path>
                                <path d="M471.967,26.652c-1.925,9.956-4.611,9.125-9.819,9.125l-.728,3.74c7.057,0,11.952-1.236,14.239-12.865Z" transform="translate(-302.001 -16.642)" fill="#fff"></path>
                                <path d="M225.445,16.026h-.092l0-.006-15.874.006-.939,4.047h11.651c-1.56,3.878-4.171,5.794-5.966,6.274l-1.454-2.989h-4.755L212.61,32.8h4.755l-1.525-3.136c3.7-1.283,7.7-5.05,9.6-13.637" transform="translate(-135.622 -9.661)" fill="#fff"></path>
                                <path d="M508.612,16.072c-1.071,3.815-3.36,3.721-4.388,3.721l-.806,3.969c.415,0,4.263.756,6.474-3.875h5.974c-2.07,8.277-6.654,8.944-12.585,8.944l-.728,3.74c9.85,0,15.084-2.028,17.708-16.5Z" transform="translate(-329.008 -9.695)" fill="#fff"></path>
                                <path d="M321.39,16.037l-15.511.012L305,20.115h11.732c-1.8,6.339-6.879,8.693-12.694,8.693l-.728,3.74c8.588,0,15.412-3.1,18.076-16.511" transform="translate(-198.191 -9.672)" fill="#fff"></path>
                                <path d="M341.235,50.068a3.372,3.372,0,0,0-3.137,2.586,2.031,2.031,0,0,0,2.037,2.587,3.37,3.37,0,0,0,3.137-2.587,2.03,2.03,0,0,0-2.037-2.586m.549,2.586a1.432,1.432,0,0,1-1.333,1.1.863.863,0,0,1-.866-1.1,1.433,1.433,0,0,1,1.333-1.1.863.863,0,0,1,.866,1.1" transform="translate(-220.991 -32.016)" fill="#fff"></path>
                                <path d="M271.773,19.166H261.4l.9-4.6h-4.159l-3.365,17.246h4.159l1.715-8.787h10.37Z" transform="translate(-166.322 -8.708)" fill="#fff"></path>
                                <path d="M569.627,21.917h3.69V19.638h-4.487V17.921h3.927V15.713h-3.927V13.47H566.9v2.243h-1.347a12.51,12.51,0,0,0,.331-1.507l-1.963-.526a6.55,6.55,0,0,1-1.544,4.277V16.589H560.7V13.47h-1.928v3.119h-2.244v2.173h2.089a11.333,11.333,0,0,1-2.544,5.257l.982,2.489a22.3,22.3,0,0,0,1.717-2.826v6.892H560.7V22.253a7.894,7.894,0,0,0,1.4,1.662l1.262-1.928c-.037-.022-.07-.047-.107-.07H566.1a16.166,16.166,0,0,1-4.486,5.644l1.4,1.963a24.112,24.112,0,0,0,3.89-4.567v5.619h1.928V24.756a14.467,14.467,0,0,0,3.647,4.452l1.331-2.067c-3.074-2.572-3.938-4.4-4.182-5.223m-8.553-3.154h1.307v-.609l1.648,1.45s.355-.685.762-1.683H566.9v1.717h-3.96l.065,2.118a5.111,5.111,0,0,1-1.934-2.994" transform="translate(-364.148 -7.987)" fill="#fff"></path>
                                <path d="M616.979,36.225h2.77V34.088h-8.1v2.137h3.12V40.37c-2.007.277-3.785.482-3.785.482l.421,2.489c7.571-.981,8.9-1.788,8.9-1.788V39.31a15.008,15.008,0,0,1-3.329.736Z" transform="translate(-400.203 -21.524)" fill="#fff"></path>
                                <path d="M626.5,24.686a10.6,10.6,0,0,1-.666,2s-.178.792-.666.841c-.351.035-.665-.246-.841-.841,0,0-.949-2.332-1.36-8.226h4.024V16.945l.877-.5-1.578-2.77-1.928.911.814,1.437h-2.336q-.043-1.2-.054-2.558h-2.28s.022,1.026.1,2.558H611.29v2.43h9.469c.275,3.758.845,8.555,1.994,10.329a2.638,2.638,0,0,0,2.279,1.542,2.712,2.712,0,0,0,2.313-1.508,3.751,3.751,0,0,0,.7-1.823Z" transform="translate(-400.403 -7.987)" fill="#fff"></path>
                                <path d="M665.7,18.921V20.2h10.024V18.97a15.963,15.963,0,0,0,2.489,1.019l1.121-2.244s-4.89-1.6-7.571-4.276h-2.349s-.737,2.032-7.291,4.381l1.192,2.243s1.049-.476,2.384-1.172m5.046-3.349a24.62,24.62,0,0,0,3.363,2.489h-6.832a15.294,15.294,0,0,0,3.469-2.489" transform="translate(-433.778 -7.987)" fill="#fff"></path>
                                <path d="M675.443,39.6l-1.683,1.437c.565.5,1.114,1.025,1.627,1.542a56.124,56.124,0,0,1-5.6.454,21.791,21.791,0,0,0,1.785-3.574H680V37.25H664.367v2.208h4.785a16.21,16.21,0,0,1-1.978,3.631c-1.5.01-2.491-.021-2.491-.021l.28,2.384c6.073-.187,10.5-.677,12.281-.9.684.765,1.109,1.287,1.109,1.287l1.893-1.4a35.185,35.185,0,0,0-4.8-4.837" transform="translate(-435.253 -23.6)" fill="#fff"></path>
                                <path d="M721.3,25.317l1.333-1.822a12.009,12.009,0,0,1-2.8-2.259,16.145,16.145,0,0,0,1.678-3.034V15.993h-2.488V13.47h-1.964v2.523h-2.734V18.2h4.61c-.252.946-1.235,3.177-5.065,5.959l1.086,2.243A23.219,23.219,0,0,0,717.1,24.49v6.085h1.928V23.382a10.225,10.225,0,0,0,2.276,1.935" transform="translate(-467.757 -7.987)" fill="#fff"></path>
                                <path d="M741,27.525V19.638h3.12V17.464H741V13.47H738.8v3.995h-3.085v2.173H738.8v7.887H734.59v2.243h10.06V27.525Z" transform="translate(-481.36 -7.986)" fill="#fff"></path>
                                <path d="M743.474,80.364H740.6a1.066,1.066,0,0,0-.84.363l-.78.968.277-1.323h-2.835l-1.857,8.365h2.932l1.287-6.112a.159.159,0,0,0-.027.04l-.045.192a.311.311,0,0,1,.045-.192l.023-.1a1.366,1.366,0,0,1,.441-.21H740.5c.427,0,.424.334.424.334l-1.3,6.038h2.962l1.634-7.5a.769.769,0,0,0-.748-.87" transform="translate(-481.341 -51.908)" fill="#fff"></path>
                                <path d="M681.68,80.388H674l-1.108,1.977h2.606l-1.387,6.388h3.107l1.345-6.388h2.014Z" transform="translate(-440.847 -51.924)" fill="#fff"></path>
                                <path d="M708.358,88.754h6.227a1.086,1.086,0,0,0,1.221-.872l1.411-6.449a.8.8,0,0,0-.775-1.044h-6.452a1.059,1.059,0,0,0-.981.678l-1.475,6.672c-.063,1.047.825,1.015.825,1.015m2.519-2.424c.118-.475.793-3.644.793-3.644s0-.232.366-.271h1.521s.359-.008.284.334c-.07.318-.745,3.549-.745,3.549s-.047.447-.4.444c-.331,0-1.57,0-1.57,0s-.363.04-.254-.412" transform="translate(-463.592 -51.925)" fill="#fff"></path>
                                <path d="M653.353,80.4h-3.188a.825.825,0,0,0-.726.365l-4.789,8h3.123l.807-1.507h2.548l.085,1.507h3.233Zm-3.729,4.912,1.255-2.347.135,2.347Z" transform="translate(-422.307 -51.933)" fill="#fff"></path>
                                <path d="M575.533,80.187h-6.675a1.01,1.01,0,0,0-.9.689l-1.744,7.761h3.136s.282-1.347.59-2.787l4.29,0a1.008,1.008,0,0,0,1.088-.7c.193-.544.743-3.091.9-4.054a.768.768,0,0,0-.691-.91m-2.734,2.24s-.167.811-.226,1.084c-.052.236-.385.291-.385.291h-1.8c.133-.6.241-1.071.295-1.26.084-.3.288-.291.288-.291s1.138.011,1.49,0c.383-.011.336.178.336.178" transform="translate(-370.81 -51.792)" fill="#fff"></path>
                                <path d="M543.093,82.539c.083-.3.287-.291.287-.291s1.139.011,1.488,0c.384-.011.337.178.337.178a5.121,5.121,0,0,1-.069.756c-.051.232-.385.285-.385.285s-.358.022-.617.015c-1.27-.033-1.416,2.093-1.154,2.642l1.168,2.513h3.408L545.777,85.3s.251-.005,1.012-.005a1.01,1.01,0,0,0,1.089-.706,33.842,33.842,0,0,0,.753-3.488.768.768,0,0,0-.69-.91h-6.674a1.006,1.006,0,0,0-.9.689l-1.745,7.761h3.136s1.124-5.356,1.331-6.1" transform="translate(-352.693 -51.791)" fill="#fff"></path>
                                <path d="M512.5,88.633h6.29c1.139,0,1.233-.882,1.233-.882l1.424-6.513a.807.807,0,0,0-.784-1.055h-6.515a1.071,1.071,0,0,0-.99.689l-1.489,6.735c-.065,1.059.831,1.026.831,1.026m2.511-2.479c.119-.478.8-3.682.8-3.682s0-.232.368-.273h1.536s.364-.008.288.339c-.072.32-.753,3.585-.753,3.585s-.047.451-.4.447c-.333,0-1.584,0-1.584,0s-.37.04-.257-.416" transform="translate(-334.988 -51.789)" fill="#fff"></path>
                                <path d="M625.494,82.539c.083-.3.287-.291.287-.291s1.139.011,1.489,0c.385-.011.336.178.336.178a5.093,5.093,0,0,1-.069.756c-.051.232-.384.285-.384.285s-.359.022-.618.015c-1.271-.033-1.415,2.093-1.153,2.642l1.169,2.513h3.407L628.179,85.3s.253-.005,1.012-.005a1.01,1.01,0,0,0,1.088-.706,33.462,33.462,0,0,0,.752-3.488.767.767,0,0,0-.688-.91h-6.674a1,1,0,0,0-.895.689l-1.747,7.761h3.137s1.121-5.356,1.33-6.1" transform="translate(-406.796 -51.791)" fill="#fff"></path>
                                <path d="M698.73,82.705c.085-.3.541-2.353.541-2.353h-2.364a1.01,1.01,0,0,0-.9.686l-1.745,7.7H697.4s1.121-5.291,1.327-6.028" transform="translate(-454.883 -51.9)" fill="#fff"></path>
                                <path d="M595.027,88.633h6.291a1.1,1.1,0,0,0,1.233-.882l1.424-6.513a.808.808,0,0,0-.784-1.055h-6.515a1.077,1.077,0,0,0-.993.689L594.2,87.607c-.065,1.059.831,1.026.831,1.026m2.509-2.479c.119-.478.8-3.682.8-3.682s0-.232.368-.273h1.536s.365-.008.288.339c-.07.32-.752,3.585-.752,3.585s-.047.451-.4.447c-.332,0-1.584,0-1.584,0s-.369.04-.258-.416" transform="translate(-389.177 -51.789)" fill="#fff"></path>
                                <path d="M492.162,82.642a.483.483,0,0,1,.465-.355h3.023l1.218-2.111h-6.452a1.03,1.03,0,0,0-.971.685s-1.115,5.174-1.414,6.421c-.319,1.346.527,1.346.527,1.346h5.906l1.17-1.97h-3.857c-.521,0-.419-.364-.4-.456.107-.526.642-2.933.784-3.56" transform="translate(-319.427 -51.785)" fill="#fff"></path>
                                <path d="M356.356,82.539c.084-.3.288-.291.288-.291s1.14.011,1.488,0c.385-.011.337.178.337.178a5.119,5.119,0,0,1-.068.756c-.052.232-.384.285-.384.285s-.358.022-.62.015c-1.268-.033-1.413,2.093-1.152,2.642l1.167,2.513h3.409L359.042,85.3s.252-.005,1.011-.005a1.01,1.01,0,0,0,1.089-.706,34.17,34.17,0,0,0,.752-3.488.767.767,0,0,0-.689-.91h-6.674a1.007,1.007,0,0,0-.9.689l-1.745,7.761h3.137s1.121-5.356,1.329-6.1" transform="translate(-230.085 -51.791)" fill="#fff"></path>
                                <path d="M333.778,80.187H327.1a1.007,1.007,0,0,0-.9.689l-1.746,7.761H327.6s.281-1.347.59-2.787l4.29,0a1.008,1.008,0,0,0,1.088-.7c.192-.544.743-3.091.9-4.054a.767.767,0,0,0-.689-.91m-2.736,2.24s-.167.811-.226,1.084c-.051.236-.384.291-.384.291h-1.8c.133-.6.242-1.071.3-1.26.083-.3.287-.291.287-.291s1.139.011,1.489,0c.384-.011.337.178.337.178" transform="translate(-212.077 -51.792)" fill="#fff"></path>
                                <path d="M381.248,88.633h6.291a1.1,1.1,0,0,0,1.233-.882l1.424-6.513a.808.808,0,0,0-.785-1.055H382.9a1.075,1.075,0,0,0-.992.689l-1.488,6.735c-.064,1.059.831,1.026.831,1.026m2.51-2.479c.118-.478.8-3.682.8-3.682s0-.232.368-.273h1.537s.364-.008.288.339c-.071.32-.752,3.585-.752,3.585s-.048.451-.4.447c-.333,0-1.584,0-1.584,0s-.369.04-.257-.416" transform="translate(-248.814 -51.789)" fill="#fff"></path>
                                <path d="M460.832,82.642a.48.48,0,0,1,.464-.355h3.024l1.216-2.111h-6.45a1.03,1.03,0,0,0-.971.685S457,86.036,456.7,87.282c-.321,1.346.527,1.346.527,1.346h5.905l1.17-1.97h-3.857c-.52,0-.418-.364-.4-.456.107-.526.64-2.933.783-3.56" transform="translate(-298.856 -51.785)" fill="#fff"></path>
                                <path d="M418.843,80.183h-7.761l-1.12,2h2.62l-1.388,6.452h3.136l1.348-6.452h2.046Z" transform="translate(-268.215 -51.789)" fill="#fff"></path>
                                <path d="M439.583,85.457l1.152-2.066h-3.962l.249-1.153h3.426l1.184-2.062h-6.21a1.275,1.275,0,0,0-1.281.751l-1.409,6.468c-.272,1.279.7,1.233.7,1.233h5.634l1.154-2.018h-4.146l.249-1.153Z" transform="translate(-283.134 -51.785)" fill="#fff"></path>
                                <path d="M212.657,80.364h-2.725a1.064,1.064,0,0,0-.839.363l-.782,1.024.112-.509a.769.769,0,0,0-.747-.87h-2.724a1.064,1.064,0,0,0-.839.363l-.774,1.012.29-1.375h-2.837l-1.855,8.365h2.932l1.285-6.112c-.009.013-.019.027-.027.04l-.043.192a.322.322,0,0,1,.043-.192l.018-.078c.109-.18.43-.221.43-.221h1.283c.428,0,.271.334.271.334l-1.3,6.037h2.963l1.329-6.1c0,.006-.008.012-.012.019l-.044.192a.321.321,0,0,1,.044-.192l.012-.053a.471.471,0,0,1,.435-.246h1.284c.429,0,.27.334.27.334l-1.3,6.038h2.963l1.633-7.5a.768.768,0,0,0-.746-.87" transform="translate(-129.659 -51.908)" fill="#fff"></path>
                                <path d="M275.243,80.388h-7.685l-1.109,1.977h2.606l-1.387,6.388h3.106l1.347-6.388h2.014Z" transform="translate(-173.987 -51.924)" fill="#fff"></path>
                                <path d="M289.768,88.754H296a1.087,1.087,0,0,0,1.222-.872l1.409-6.449a.8.8,0,0,0-.777-1.044H291.4a1.062,1.062,0,0,0-.982.678l-1.474,6.672c-.064,1.047.823,1.015.823,1.015m2.521-2.424c.117-.475.792-3.644.792-3.644s0-.232.365-.271h1.521s.361-.008.285.334c-.071.318-.745,3.549-.745,3.549s-.047.447-.4.444c-.33,0-1.569,0-1.569,0s-.364.04-.253-.412" transform="translate(-188.755 -51.925)" fill="#fff"></path>
                                <path d="M246.28,80.4h-3.186a.831.831,0,0,0-.728.365l-4.787,8H240.7l.806-1.507h2.546l.086,1.507h3.233Zm-3.728,4.912,1.258-2.347.133,2.347Z" transform="translate(-155.031 -51.933)" fill="#fff"></path>
                                <path d="M177.654,80.388h-3.185a.835.835,0,0,0-.729.363l-4.786,8h3.122l.805-1.5-.047.006,0-.006h2.59l.086,1.5h3.233Zm-2.337,4.91h-1.392l1.258-2.345.134,2.345v-.032l0,.032Z" transform="translate(-109.973 -51.924)" fill="#fff"></path>
                                <path d="M161.085,80.428H158.4a.829.829,0,0,0-.7.383s-1.04,1.293-2.053,2.558c-.4-1.174-.834-2.386-.919-2.509a.937.937,0,0,0-.761-.432H151.6l1.955,5.241-.708,3.114h3.082l.689-2.857Z" transform="translate(-98.581 -51.95)" fill="#fff"></path>
                            </g>
                        </svg>